<svg xmlns="http://www.w3.org/2000/svg" viewBox="0 0 73.2 73.1" enable-background="new 0 0 73.2 73.1"><style type="text/css">.st0{fill:#CCCCCC;} .st1{fill:#13CFB0;}</style><path class="st0" d="M36.5 73.1c-20 .2-36.7-16.6-36.5-36.9.2-19.9 16.8-36.4 37-36.2 19.7.2 36.4 16.7 36.2 37.1-.3 19.9-16.5 36-36.7 36zm29.7-36.5c0-16.4-13.2-29.7-29.5-29.7-16.4 0-29.8 13.2-29.8 29.5 0 16.5 13.2 29.8 29.5 29.8 16.6 0 29.8-13.2 29.8-29.6zM51.6 26.5c2.3 2.3 4.1 4 5.7 5.7-6.9 7-13.9 14.1-20.9 21.2-7-7.1-14-14.2-20.8-21.2l5.3-5.3c4.9 5.1 9.9 10.3 15.1 15.7 5.5-5.6 10.6-10.8 15.6-16.1z"/></svg>