<svg xmlns="http://www.w3.org/2000/svg" viewBox="0 0 61.3 56.1" enable-background="new 0 0 61.3 56.1"><path fill="#44BEA8" stroke="#44BEA8" stroke-miterlimit="10" d="M60.6 17.8l-10-16.5c-.3-.5-.8-.8-1.4-.8h-37c-.6 0-1.1.3-1.4.8l-10 16.5c-.1.1-.1.2-.2.4v.7c0 .1 0 .3.1.4v.1l.2.4 28.4 35.2c.1.1.2.2.3.2.1.1.3.2.4.2.1 0 .2.1.4.1h.1c.1 0 .3 0 .4-.1h.1s.1 0 .1-.1c0 0 .1 0 .1-.1.1 0 .1-.1.1-.1s.1 0 .1-.1l.2-.2 28.5-35.3c.8-.3.8-1.1.5-1.7zm-26.4-14l5.3 13.2h-17.7l5.3-13.2h7.1zm-21.1 0h10.4l-5.3 13.2h-13.1l8-13.2zm-7.5 16.5h12.5l8.3 25.7-20.8-25.7zm25 28.2l-9-28.2h18.1l-9.1 28.2zm4.3-2.5l8.2-25.7h12.5l-20.7 25.7zm8.2-29l-5.3-13.2h10.4l8 13.2h-13.1zm0 0"/></svg>