<svg xmlns="http://www.w3.org/2000/svg" viewBox="0 0 66.6 66.6" enable-background="new 0 0 66.6 66.6"><path fill="#13CFB0" d="M8.5 0h49.5c4.7 0 8.5 3.8 8.5 8.5v49.5c0 4.7-3.8 8.5-8.5 8.5h-49.5c-4.7.1-8.5-3.8-8.5-8.5v-49.5c0-4.7 3.8-8.5 8.5-8.5zm40 7.4c-1.7 0-3 1.4-3 3v7.2c0 1.7 1.3 3 3 3h7.5c1.6 0 3-1.3 3-3v-7.2c0-1.7-1.3-3-3-3h-7.5zm10.6 20.8h-5.9c.6 1.8.9 3.7.9 5.7 0 11.1-9.3 20.1-20.7 20.1-11.4 0-20.7-9-20.7-20.1 0-2 .3-3.9.9-5.7h-6.2v28.1c0 1.5 1.2 2.6 2.6 2.6h46.4c1.5 0 2.6-1.2 2.6-2.6v-28.1zm-25.7-8c-7.4 0-13.4 5.8-13.4 13s6 13 13.4 13 13.4-5.8 13.4-13c-.1-7.2-6.1-13-13.4-13z"/></svg>