<svg xmlns="http://www.w3.org/2000/svg" viewBox="0 0 67.4 54.8" enable-background="new 0 0 67.4 54.8"><path fill="#13CFB0" d="M67.4 6.5c-2.5 1.1-5.1 1.8-7.9 2.2 2.9-1.7 5.1-4.4 6.1-7.6-2.7 1.6-5.6 2.7-8.8 3.4-2.6-2.8-6.2-4.5-10.1-4.5-7.7 0-13.9 6.2-13.9 13.8 0 1.1.1 2.1.4 3.2-11.5-.6-21.7-6.1-28.5-14.5-1.2 2-1.9 4.4-1.9 7 0 4.8 2.4 9 6.1 11.5-2.3-.1-4.4-.7-6.3-1.7v.2c0 6.7 4.8 12.3 11.1 13.6-1.2.3-2.4.5-3.6.5-.9 0-1.8-.1-2.6-.3 1.8 5.5 6.9 9.5 12.9 9.6-4.7 3.7-10.7 5.9-17.2 5.9-1.1 0-2.2-.1-3.3-.2 6.1 3.9 13.4 6.2 21.2 6.2 25.4 0 39.3-21.1 39.3-39.3v-1.8c2.8-2 5.1-4.4 7-7.2z"/></svg>